# xmcd
#
# Track frame offsets: 
#        150
#        22915
#        38425
#        60321
#        80196
#        93962
#        121668
#        135653
#        163070
#        183160
#        213810
#        244806
#        269075
#        284172
#        319722
#
# Disc length: 4545 seconds
#
# Revision: 2
# Processed by: cddbd v1.5.2PL0 Copyright (c) Steve Scherf et al.
# Submitted via: ExactAudioCopyFreeDBPlugin 1.0
#
DISCID=cb11bf0f
DTITLE=Various Artist - Jazzclub Highlights - Great Vibes!
DYEAR=2007
DGENRE=Jazz
TTITLE0=Dave Samuels - Tres Palabras
TTITLE1=Milt Jackson - Kiss and Run
TTITLE2=Cal Tjader - Joao
TTITLE3=Karel Velebny - Nude
TTITLE4=Roy Ayers Ubiquity - Vibrations
TTITLE5=Gary Burton - My Funny Valentine
TTITLE6=Terry Gibbs Quartet - Oge
TTITLE7=Eddie Costa Quartet - I'll Know
TTITLE8=Lem Winchester Quartet - Now's the Time
TTITLE9=Lionel Hampton and Stan Getz - Louise
TTITLE10=Fats Sadi - Blue Sunrise
TTITLE11=Bobby Hutcherson - Chan's Song
TTITLE12=Dave Pike Set - Vian-De
TTITLE13=Günter Hampel Quintet - Without Me
TTITLE14=Gary McFarland Sextet - Love Theme From David and Lisa
EXTD=
EXTT0=
EXTT1=
EXTT2=
EXTT3=
EXTT4=
EXTT5=
EXTT6=
EXTT7=
EXTT8=
EXTT9=
EXTT10=
EXTT11=
EXTT12=
EXTT13=
EXTT14=
PLAYORDER=
